 http://leetleech.org/images/28343300686131507316.jpg

Screens:
 
http://leetleech.org/images/94738464586933814289.jpg 
http://leetleech.org/images/08881261831774440433.jpg 
http://leetleech.org/images/24253677568667095241.jpg 
http://leetleech.org/images/37787311221422505740.jpg

Alternative:
 
http://www.postimg.com/image/31000/photo-30008.jpg
 
http://www.postimg.com/image/31000/photo-30009.jpg
 
http://www.postimg.com/image/31000/photo-30010.jpg
 
http://www.postimg.com/image/31000/photo-30011.jpg

ScreenCaps:
 
http://www.postimg.com/image/31000/photo-30012.jpg

The Chronicles of Narnia 3 (2010) DVDRip XviD-MAX
aka The Chronicles of Narnia The Voyage of the Dawn Treader (2010) DVDRip
Format                           : AVI
Format/Info                      : Audio Video Interleave
Format profile                   : OpenDML
File size                        : 1.59 GiB
Duration                         : 1h 52mn
Overall bit rate                 : 2 015 Kbps
Writing application              : VirtualDubMod 1.5.10.2 (build 2542/release)
Writing library                  : VirtualDubMod build 2542/release
Original source form             : MAX TORRENTZ
Copyright                        : SIGISMUNT

Video
ID                               : 0
Format                           : MPEG-4 Visual
Format profile                   : AdvancedSimple@L5
Format settings, BVOP            : Yes
Format settings, QPel            : No
Format settings, GMC             : No warppoints
Format settings, Matrix          : Custom
Codec ID                         : XVID
Codec ID/Hint                    : XviD
Duration                         : 1h 52mn
Bit rate                         : 1 819 Kbps
Width                            : 720 pixels
Height                           : 400 pixels
Display aspect ratio             : 16:9
Frame rate                       : 23.976 fps
Resolution                       : 24 bits
Colorimetry                      : 4:2:0
Scan type                        : Progressive
Bits/(Pixel*Frame)               : 0.263
Stream size                      : 1.43 GiB (90%)
Writing library                  : XviD 58

Audio
ID                               : 1
Format                           : MPEG Audio
Format version                   : Version 1
Format profile                   : Layer 3
Codec ID                         : 55
Codec ID/Hint                    : MP3
Duration                         : 1h 52mn
Bit rate mode                    : Constant
Bit rate                         : 192 Kbps
Channel(s)                       : 2 channels
Sampling rate                    : 48.0 KHz
Resolution                       : 16 bits
Stream size                      : 155 MiB (10%)
Alignment                        : Aligned on interleaves
Interleave, duration             : 452 ms (10.84 video frames)
Interleave, preload duration     : 216 ms
Writing library                  : LAME3.98.2
 
Source:DVD (perfect a/v/sync quality with additional 300% volume,sample included)
 
http://www.imdb.com/title/tt0980970/

The Chronicles of Narnia 3 (2010) DVDRip XviD-MAX Torrent Free Download
 
http://thepiratebay.org/user/extremezone/0/7

How To Get Your Maxspeed (uTorrent)

Torrent Client - Preferences - Bandwidth - Number of connections - Set aprox. 500 for each 
Torrent Client - Preferences - BiTorrent - Protocol Encryption - Forced
Bandwidth Allocation - High (Set download/upload limit - Unlimited)
Stop Other Active Torrents - Start downloading and wait for connections.
Enjoy and Seed for at least 1:1 ratio. Don't forget to say thanks/leave reviews.
Before downloading you should check/google search sample "release name""sample".
Greets to all actual/future p2p/scene QUALITY groups and affiliate websites.
Don't trust IMDb robot or bad ratings,always watch some trailers first.
Ignore stupid comments/fake/mislabeled/no-DVDrips/CAM/TS/RAR uploads.
Please spread this release/torrent to your friends/forums/etc.
If you need translation subs visit some subtitles sites.
Report if you see online streaming or other spam links.
Recommended movie player VLC PLAYER.